<?xml version="1.0" encoding="UTF-8" standalone="no"?>
<svg
   width="128"
   height="128"
   viewBox="0 0 128 128"
   fill="none"
   version="1.1"
   xmlns="http://www.w3.org/2000/svg">
  <rect width="128" height="128" rx="30" fill="#4DAA57" />
  <path
     d="M 64.000005,26.666626 C 48.8,26.666626 36.622222,39.281607 36.622222,55.00004 c 0,21.75316 23.862223,44.66986 24.938893,45.66979 1.77222,1.62912 4.222225,1.62912 6.019445,0 C 68.688895,99.6699 92.50001,76.7532 92.50001,55.00004 92.50001,39.281607 80.20001,26.666626 64.000005,26.666626 Z M 64.000005,71.70167 c -8.97068,0 -16.226111,-7.42021 -16.226111,-16.64967 0,-9.229463 7.255431,-16.649669 16.226111,-16.649669 8.97068,0 16.226115,7.420206 16.226115,16.649669 0,9.22946 -7.255435,16.64967 -16.226115,16.64967 z"
     fill="#FFFFFF"
     stroke="#4DAA57"
     stroke-width="2" />
  <style>
    @media (prefers-color-scheme: dark) {
      rect { fill: #76B947; }
    }
  </style>
</svg>
